<svg width="24" height="25" viewBox="0 0 24 25" fill="none" xmlns="http://www.w3.org/2000/svg">
<g id="24 / shopping / cart">
<path id="icon" fill-rule="evenodd" clip-rule="evenodd" d="M6.07125 4.44744C5.89365 4.44705 5.72244 4.46729 5.55976 4.50577C5.33674 4.01084 5.04216 3.56681 4.70711 3.22946C4.13843 2.65686 3.24155 2.4311 2 2.4311V4.44488C2.75845 4.44488 3.1949 4.55474 3.29289 4.65341C3.67086 5.03399 4 5.80726 4 6.45866L4.01005 6.60106L4.98992 13.5074C3.35036 13.5931 2.0802 14.8751 2.00123 16.4777L2 17.5345C2.09682 19.1897 3.36275 20.463 4.94324 20.5535L5.17026 20.5538C5.58174 21.7277 6.69331 22.5689 8 22.5689C9.30622 22.5689 10.4175 21.7283 10.8293 20.5551H13.1707C13.5825 21.7283 14.6938 22.5689 16 22.5689C17.6569 22.5689 19 21.2165 19 19.5482C19 17.88 17.6569 16.5276 16 16.5276C14.6938 16.5276 13.5825 17.3681 13.1707 18.5413H10.8293C10.4175 17.3681 9.30622 16.5276 8 16.5276C6.69378 16.5276 5.58254 17.3681 5.17071 18.5413H5C4.49001 18.5105 4.03254 18.0504 3.99821 17.4742L4 16.5276C4.02697 16.0053 4.48131 15.5478 5.04955 15.5194L7.02369 15.5199L7.038 15.5207H17.1169L17.2645 15.4735C18.0227 15.2313 18.6296 14.6564 18.917 13.9122L19.0224 13.7022L19.3647 13.0194C19.7188 12.3126 20.0729 11.6046 20.418 10.9129C21.2632 9.21862 21.7948 8.14184 21.9125 7.87742C22.5171 6.51953 21.2924 5.47439 20.0407 5.45213L6.07125 4.44744ZM16.7694 13.5069H7.11287C7.04866 13.4889 6.99973 13.4342 6.99015 13.3659L6.01026 6.4594L19.8934 7.46044C19.6505 7.95925 19.2089 8.85018 18.6308 10.009L18.6163 10.0381C18.2863 10.6995 17.9326 11.4066 17.579 12.1124L17.2371 12.7944L17.1076 13.0526L17.0588 13.1668C17.0065 13.3133 16.9028 13.4337 16.7694 13.5069ZM16 20.5551C16.5523 20.5551 17 20.1043 17 19.5482C17 18.9921 16.5523 18.5413 16 18.5413C15.4477 18.5413 15 18.9921 15 19.5482C15 20.1043 15.4477 20.5551 16 20.5551ZM9 19.5482C9 20.1043 8.55228 20.5551 8 20.5551C7.44772 20.5551 7 20.1043 7 19.5482C7 18.9921 7.44772 18.5413 8 18.5413C8.55228 18.5413 9 18.9921 9 19.5482Z" fill="#69B9CF"/>
</g>
</svg>
