<svg width="24" height="10" viewBox="-5.5 0 24 10" fill="none" xmlns="http://www.w3.org/2000/svg">
<path id="icon" fill-rule="evenodd" clip-rule="evenodd" d="M0 1.25C0 1.94036 0.555814 2.5 1.24145 2.5C1.92708 2.5 2.48289 1.94036 2.48289 1.25C2.48289 0.559644 1.92708 0 1.24145 0C0.555814 0 0 0.559644 0 1.25ZM3.72427 0.625H12.4144V1.875H3.72427V0.625ZM12.4144 5.625V4.375H3.72427V5.625H12.4144ZM3.72427 9.375H12.4144V8.125H3.72427V9.375ZM0 8.75C0 9.44036 0.555814 10 1.24145 10C1.92708 10 2.48289 9.44036 2.48289 8.75C2.48289 8.05964 1.92708 7.5 1.24145 7.5C0.555814 7.5 0 8.05964 0 8.75ZM1.24145 6.25C0.555814 6.25 0 5.69036 0 5C0 4.30964 0.555814 3.75 1.24145 3.75C1.92708 3.75 2.48289 4.30964 2.48289 5C2.48289 5.69036 1.92708 6.25 1.24145 6.25Z" fill="#69B9CF"/>
</svg>
