<svg width="24" height="24" viewBox="-7 -7 24 24" fill="none" xmlns="http://www.w3.org/2000/svg">
<path id="&#208;&#151;&#208;&#176;&#208;&#186;&#209;&#128;&#209;&#139;&#209;&#130;&#209;&#140; &#208;&#188;&#208;&#184;&#208;&#189;&#208;&#184;" opacity="0.5" d="M6.07289 4.9875L9.78289 1.2775C10.0729 0.9875 10.0729 0.5075 9.78289 0.2175C9.49289 -0.0725 9.02289 -0.0725 8.72289 0.2175L5.01289 3.9275L1.30289 0.2175C1.01289 -0.0725 0.532891 -0.0725 0.242891 0.2175C-0.0471094 0.5075 -0.0471094 0.9875 0.242891 1.2775L3.95289 4.9875L0.242891 8.6975C-0.0471094 8.9875 -0.0471094 9.4675 0.242891 9.7575C0.532891 10.0475 1.01289 10.0475 1.30289 9.7575L5.01289 6.0475L8.72289 9.7675C9.01289 10.0575 9.49289 10.0575 9.78289 9.7675C10.0729 9.4775 10.0729 8.9975 9.78289 8.7075L6.07289 4.9875Z" fill="#381C14"/>
</svg>
