<svg width="24" height="25" viewBox="0 0 24 25" fill="none" xmlns="http://www.w3.org/2000/svg">
<g id="24 / basic / heart">
<path id="icon" fill-rule="evenodd" clip-rule="evenodd" d="M16.5532 2.43112C15.1056 2.4311 14.1724 2.60475 13.1027 3.13197C12.7066 3.32716 12.335 3.56223 11.99 3.83648C11.6582 3.57761 11.3015 3.35333 10.9218 3.16425C9.83132 2.62117 8.85028 2.4311 7.45455 2.4311C3.71644 2.4311 1 5.54971 1 9.60003C1 12.6588 2.69383 15.6136 5.84884 18.4708C7.50489 19.9705 9.61932 21.4546 11.1336 22.2442L12 22.6959L12.8664 22.2442C14.3807 21.4546 16.4951 19.9705 18.1512 18.4708C21.3062 15.6136 23 12.6588 23 9.60003C23 5.59258 20.2579 2.44656 16.5532 2.43112ZM21 9.60003C21 11.9965 19.5862 14.4627 16.8137 16.9735C15.3022 18.3423 13.359 19.7103 12 20.4279C10.641 19.7103 8.69782 18.3423 7.18628 16.9735C4.41382 14.4627 3 11.9965 3 9.60003C3 6.6074 4.88364 4.44488 7.45455 4.44488C8.56428 4.44488 9.24813 4.57737 10.0351 4.96931C10.5 5.20082 10.9109 5.50652 11.2665 5.88853L12.0023 6.67887L12.7315 5.88227C13.0951 5.48495 13.512 5.17229 13.9819 4.9407C14.7459 4.56419 15.387 4.44488 16.5491 4.44489C19.0882 4.45548 21 6.64893 21 9.60003Z" fill="#69B9CF"/>
</g>
</svg>
