<svg width="20" height="21" viewBox="0 0 20 21" fill="none" xmlns="http://www.w3.org/2000/svg">
<g clip-path="url(#clip0_61_103)">
<path d="M4.97525 8.06214L4.47774 7.16661L6.46779 5.97258L4.97525 3.48502L2.9852 4.77855L2.38818 3.88303L5.27376 2.19149L7.86082 6.27109" fill="#69B9CF"/>
<path d="M10.2488 20.5C9.35328 20.5 8.35825 20.2015 7.36323 19.6045C5.67169 18.6095 3.98014 16.9179 2.68661 14.8284C-0.298463 10.1518 -0.397965 5.67415 2.3881 3.88311L2.88562 4.77863C0.597059 6.17167 0.796064 10.1518 3.38313 14.3309C4.57716 16.3209 6.1692 17.913 7.66174 18.8085C8.75626 19.4055 10.3483 19.903 11.7413 19.107L13.6319 17.913L12.3384 15.4254L10.3483 16.6194C9.15427 17.3159 7.56223 16.9179 6.86572 15.8234L3.68164 10.6493C2.98512 9.45525 3.28363 7.96271 4.47766 7.16669L4.97517 8.06221C4.27865 8.46022 4.07965 9.35575 4.47766 10.0523L7.66174 15.2264C8.05975 15.9229 9.15427 16.1219 9.85079 15.7239L12.6369 14.0324L15.2239 18.112L12.4379 19.8035C11.7413 20.301 11.0448 20.5 10.2488 20.5ZM14.0299 11.7438L13.1344 11.4453C13.5324 10.3508 13.3334 9.25624 12.7364 8.36072C12.1393 7.3657 11.0448 6.76868 9.95029 6.66918L10.0498 5.67415C11.5423 5.77366 12.8359 6.56968 13.6319 7.76371C14.3284 8.95774 14.5274 10.4503 14.0299 11.7438Z" fill="#69B9CF"/>
<path d="M16.8161 12.3408L15.821 12.0423C16.3185 10.2513 16.02 8.36074 15.025 6.7687C14.03 5.17666 12.3384 4.18163 10.3484 3.88312L10.4479 2.8881C12.6369 3.18661 14.627 4.38064 15.821 6.17168C17.0151 8.06223 17.4131 10.2513 16.8161 12.3408Z" fill="#69B9CF"/>
<path d="M19.2039 12.9378L18.2089 12.6393C18.9054 10.1517 18.4079 7.56468 17.1144 5.47512C15.7213 3.28607 13.4328 1.89303 10.8457 1.49502L10.9452 0.5C13.8308 0.89801 16.3183 2.49005 17.9104 4.87811C19.5024 7.26617 19.9999 10.1517 19.2039 12.9378Z" fill="#69B9CF"/>
</g>
<defs>
<clipPath id="clip0_61_103">
<rect width="20" height="20" fill="#69B9CF" transform="translate(0 0.5)"/>
</clipPath>
</defs>
</svg>
