<svg width="24" height="25" viewBox="0 0 24 25" fill="none" xmlns="http://www.w3.org/2000/svg">
<rect y="0.5" width="24" height="24" rx="12" fill="#005FF9"/>
<path d="M14.4063 12.5C14.4063 13.8269 13.3269 14.9063 12 14.9063C10.6731 14.9063 9.59371 13.8269 9.59371 12.5C9.59371 11.1731 10.6731 10.0937 12 10.0937C13.3269 10.0937 14.4063 11.1731 14.4063 12.5ZM12 4.5C7.58857 4.5 4 8.08857 4 12.5C4 16.9114 7.58857 20.5 12 20.5C13.616 20.5 15.1743 20.0189 16.5063 19.1086L16.5291 19.0926L15.4514 17.84L15.4331 17.8514C14.408 18.5114 13.2206 18.86 12 18.86C8.49314 18.86 5.64 16.0069 5.64 12.5C5.64 8.99314 8.49314 6.14 12 6.14C15.5069 6.14 18.36 8.99314 18.36 12.5C18.36 12.9543 18.3091 13.4143 18.2103 13.8669C18.0091 14.6926 17.4309 14.9451 16.9971 14.912C16.5606 14.8766 16.0497 14.5657 16.0463 13.8046V13.2246V12.5C16.0463 10.2686 14.2314 8.45371 12 8.45371C9.76857 8.45371 7.95372 10.2686 7.95372 12.5C7.95372 14.7314 9.76857 16.5463 12 16.5463C13.084 16.5463 14.1006 16.1229 14.8669 15.352C15.3126 16.0457 16.0389 16.4806 16.8657 16.5469C16.9366 16.5526 17.0091 16.5554 17.0806 16.5554C17.6629 16.5554 18.2394 16.3606 18.7046 16.008C19.184 15.6434 19.5423 15.1171 19.74 14.4846C19.7714 14.3823 19.8297 14.1486 19.8297 14.1469L19.8314 14.1383C19.948 13.6309 20 13.1251 20 12.5C20 8.08857 16.4114 4.5 12 4.5Z" fill="white"/>
</svg>
