<svg width="24" height="25" viewBox="0 0 24 25" fill="none" xmlns="http://www.w3.org/2000/svg">
<rect y="0.5" width="24" height="24" rx="12" fill="#0DC143"/>
<path d="M17.3752 7.10574C16.0887 5.78142 14.3104 5.0625 12.4941 5.0625C8.63468 5.0625 5.53198 8.20304 5.56982 12.0247C5.56982 13.2355 5.91036 14.4084 6.47792 15.4679L5.49414 19.0625L9.16441 18.1166C10.186 18.6841 11.3212 18.949 12.4563 18.949C16.2779 18.949 19.3806 15.8084 19.3806 11.9868C19.3806 10.1328 18.6617 8.39223 17.3752 7.10574ZM12.4941 17.776C11.4725 17.776 10.4509 17.5111 9.58063 16.9814L9.3536 16.8679L7.15901 17.4355L7.72657 15.2787L7.57522 15.0517C5.91036 12.3652 6.70495 8.80845 9.42928 7.14358C12.1536 5.47872 15.6725 6.27331 17.3374 8.99764C19.0022 11.722 18.2077 15.2409 15.4833 16.9057C14.6131 17.4733 13.5536 17.776 12.4941 17.776ZM15.8239 13.576L15.4077 13.3868C15.4077 13.3868 14.8022 13.122 14.4239 12.9328C14.386 12.9328 14.3482 12.8949 14.3104 12.8949C14.1968 12.8949 14.1212 12.9328 14.0455 12.9706C14.0455 12.9706 14.0077 13.0084 13.4779 13.6139C13.4401 13.6895 13.3644 13.7274 13.2887 13.7274H13.2509C13.2131 13.7274 13.1374 13.6895 13.0995 13.6517L12.9104 13.576C12.4941 13.3868 12.1158 13.1598 11.8131 12.8571C11.7374 12.7814 11.6239 12.7057 11.5482 12.6301C11.2833 12.3652 11.0185 12.0625 10.8293 11.722L10.7914 11.6463C10.7536 11.6084 10.7536 11.5706 10.7158 11.4949C10.7158 11.4193 10.7158 11.3436 10.7536 11.3057C10.7536 11.3057 10.905 11.1166 11.0185 11.003C11.0941 10.9274 11.132 10.8139 11.2077 10.7382C11.2833 10.6247 11.3212 10.4733 11.2833 10.3598C11.2455 10.1706 10.7914 9.14899 10.6779 8.92196C10.6022 8.80845 10.5266 8.77061 10.4131 8.73277H10.2995C10.2239 8.73277 10.1104 8.73277 9.99684 8.73277C9.92117 8.73277 9.84549 8.77061 9.76982 8.77061L9.73198 8.80845C9.6563 8.84628 9.58063 8.92196 9.50495 8.9598C9.42928 9.03547 9.39144 9.11115 9.31576 9.18682C9.0509 9.52736 8.89955 9.94358 8.89955 10.3598C8.89955 10.6625 8.97522 10.9652 9.08874 11.2301L9.12657 11.3436C9.46711 12.0625 9.92117 12.7057 10.5266 13.2733L10.6779 13.4247C10.7914 13.5382 10.905 13.6139 10.9806 13.7274C11.7752 14.4084 12.6833 14.9003 13.705 15.1652C13.8185 15.203 13.9698 15.203 14.0833 15.2409C14.1968 15.2409 14.3482 15.2409 14.4617 15.2409C14.6509 15.2409 14.8779 15.1652 15.0293 15.0895C15.1428 15.0139 15.2185 15.0139 15.2941 14.9382L15.3698 14.8625C15.4455 14.7868 15.5212 14.749 15.5968 14.6733C15.6725 14.5976 15.7482 14.522 15.786 14.4463C15.8617 14.2949 15.8995 14.1057 15.9374 13.9166C15.9374 13.8409 15.9374 13.7274 15.9374 13.6517C15.9374 13.6517 15.8995 13.6139 15.8239 13.576Z" fill="white"/>
</svg>
