<svg width="25" height="26" viewBox="0 0 25 26" fill="none" xmlns="http://www.w3.org/2000/svg">
<g id="24 / basic / user">
<path id="icon" fill-rule="evenodd" clip-rule="evenodd" d="M12.8345 24.0758C6.75934 24.0758 1.83447 19.117 1.83447 13C1.83447 6.88301 6.75934 1.92421 12.8345 1.92421C18.9096 1.92421 23.8345 6.88301 23.8345 13C23.8345 19.117 18.9096 24.0758 12.8345 24.0758ZM20.234 18.16C21.2431 16.6956 21.8345 14.9173 21.8345 13C21.8345 7.99519 17.805 3.93799 12.8345 3.93799C7.86391 3.93799 3.83447 7.99519 3.83447 13C3.83447 14.9173 4.42586 16.6956 5.43498 18.16C6.56043 16.6631 9.20508 16.0207 12.8345 16.0207C16.4639 16.0207 19.1085 16.6631 20.234 18.16ZM18.7992 19.7862C18.5065 18.7265 16.4039 18.0345 12.8345 18.0345C9.26509 18.0345 7.16248 18.7265 6.86979 19.7862C8.45777 21.2023 10.5464 22.062 12.8345 22.062C15.1225 22.062 17.2112 21.2023 18.7992 19.7862ZM12.8345 6.95866C10.4136 6.95866 8.83447 8.72652 8.83447 10.9862C8.83447 14.4372 10.5953 16.0207 12.8345 16.0207C15.0526 16.0207 16.8345 14.4898 16.8345 11.1876C16.8345 8.89348 15.2487 6.95866 12.8345 6.95866ZM10.8345 10.9862C10.8345 13.2711 11.6527 14.0069 12.8345 14.0069C14.0122 14.0069 14.8345 13.3004 14.8345 11.1876C14.8345 9.92941 14.0501 8.97244 12.8345 8.97244C11.5682 8.97244 10.8345 9.79389 10.8345 10.9862Z" fill="#69B9CF"/>
</g>
</svg>
