<svg width="134" height="75" viewBox="0 0 134 75" fill="none" xmlns="http://www.w3.org/2000/svg">
<path d="M27.5181 29.8561L17.8958 22.2122L27.5181 14.2986L36.9605 22.1223L27.5181 29.8561Z" fill="#434847"/>
<path d="M13.1297 32.7338L10.207 30.3957L17.0416 24.7752L18.0308 25.4496L19.9193 23.8759L20.8185 24.5953L19.02 26.1691L19.9193 26.9335L13.1297 32.7338Z" fill="#4DA7BE"/>
<path d="M19.9641 26.9334L21.8526 25.2698L23.2465 26.4388L21.358 28.1025L19.9641 26.9334Z" fill="#48ABC4"/>
<path d="M17.4461 36.1061L14.5234 33.768L21.358 28.1475L22.3472 28.8219L24.2357 27.2482L25.1349 27.9676L23.3364 29.5414L24.2357 30.3058L17.4461 36.1061Z" fill="#4DA7BE"/>
<path d="M19.6043 71.7626L0 55.3957L0.0906699 22.483L1.97842 23.6511L2.15827 54.4964L21.0432 69.8741L19.6043 71.7626Z" fill="#434847"/>
<path d="M8.81299 54.8561V29.2266L10.8813 30.8453V53.777L21.2231 62.0504L19.8741 63.759L8.81299 54.8561Z" fill="#434847"/>
<path d="M16.9963 47.3921V35.7914L18.8848 37.2302V46.4029L20.9981 48.1115L20.0089 49.9101L16.9963 47.3921Z" fill="#434847"/>
<path d="M26.7085 75V40.3777L28.1473 41.5468L29.1366 40.2878V70.2338L52.338 51.1691V40.2878L38.579 51.8885L37.4099 50L54.2265 35.8813V52.0684L26.7085 75Z" fill="#434847"/>
<path d="M0.0900879 22.482L9.35268 29.5863L16.3671 24.0108L14.0289 22.0324L27.6081 10.7914V1.88849L52.6081 22.3022L41.2771 22.482L27.5181 33.4532L24.9102 31.4748L18.7052 36.9604L27.8779 44.1547L53.957 21.9424L27.4282 0L0.0900879 22.482Z" fill="#48ABC4"/>
<path fill-rule="evenodd" clip-rule="evenodd" d="M21.5827 72.482C22.0297 72.482 22.392 72.1196 22.392 71.6727C22.392 71.2257 22.0297 70.8633 21.5827 70.8633C21.1357 70.8633 20.7733 71.2257 20.7733 71.6727C20.7733 72.1196 21.1357 72.482 21.5827 72.482ZM21.5827 73.9209C22.8243 73.9209 23.8309 72.9143 23.8309 71.6727C23.8309 70.431 22.8243 69.4245 21.5827 69.4245C20.341 69.4245 19.3345 70.431 19.3345 71.6727C19.3345 72.9143 20.341 73.9209 21.5827 73.9209Z" fill="#4DA7BE"/>
<path fill-rule="evenodd" clip-rule="evenodd" d="M21.5827 64.3885C22.0297 64.3885 22.392 64.0261 22.392 63.5791C22.392 63.1321 22.0297 62.7698 21.5827 62.7698C21.1357 62.7698 20.7733 63.1321 20.7733 63.5791C20.7733 64.0261 21.1357 64.3885 21.5827 64.3885ZM21.5827 65.8273C22.8243 65.8273 23.8309 64.8208 23.8309 63.5791C23.8309 62.3375 22.8243 61.3309 21.5827 61.3309C20.341 61.3309 19.3345 62.3375 19.3345 63.5791C19.3345 64.8208 20.341 65.8273 21.5827 65.8273Z" fill="#4DA7BE"/>
<path fill-rule="evenodd" clip-rule="evenodd" d="M21.5827 50.5396C22.0297 50.5396 22.392 50.1772 22.392 49.7302C22.392 49.2832 22.0297 48.9209 21.5827 48.9209C21.1357 48.9209 20.7733 49.2832 20.7733 49.7302C20.7733 50.1772 21.1357 50.5396 21.5827 50.5396ZM21.5827 51.9784C22.8243 51.9784 23.8309 50.9719 23.8309 49.7302C23.8309 48.4886 22.8243 47.482 21.5827 47.482C20.341 47.482 19.3345 48.4886 19.3345 49.7302C19.3345 50.9719 20.341 51.9784 21.5827 51.9784Z" fill="#4DA7BE"/>
<path fill-rule="evenodd" clip-rule="evenodd" d="M36.7807 52.8327C37.2277 52.8327 37.59 52.4704 37.59 52.0234C37.59 51.5764 37.2277 51.214 36.7807 51.214C36.3337 51.214 35.9713 51.5764 35.9713 52.0234C35.9713 52.4704 36.3337 52.8327 36.7807 52.8327ZM36.7807 54.2716C38.0223 54.2716 39.0289 53.265 39.0289 52.0234C39.0289 50.7817 38.0223 49.7752 36.7807 49.7752C35.539 49.7752 34.5325 50.7817 34.5325 52.0234C34.5325 53.265 35.539 54.2716 36.7807 54.2716Z" fill="#4DA7BE"/>
<path fill-rule="evenodd" clip-rule="evenodd" d="M100.37 14.7873C99.4596 14.7873 98.7214 15.5255 98.7214 16.4361C98.7214 17.3467 99.4596 18.0849 100.37 18.0849C101.281 18.0849 102.019 17.3467 102.019 16.4361C102.019 15.5255 101.281 14.7873 100.37 14.7873ZM97.1063 16.4361C97.1063 14.6335 98.5676 13.1722 100.37 13.1722C102.173 13.1722 103.634 14.6335 103.634 16.4361C103.634 17.6922 102.925 18.7826 101.884 19.3283V35.5147H98.6542V19.213C97.7252 18.6377 97.1063 17.6092 97.1063 16.4361ZM94.2799 18.8251V35.4474H91.0496V28.5159H86.137V35.4474H82.9067V18.8924H86.137V25.2856H91.0496V18.8251H94.2799ZM67.2266 18.9597H79.1381V22.19H70.4568V32.1499H79.0708V35.3801H67.2266V18.9597ZM105.788 18.8251H117.901V28.5159H113.056V25.2856H114.671V22.0554H109.018V35.4474H105.788V18.8251ZM79.0708 45.2728H67.4957V61.5586H79.2054V51.8006H73.8216V55.0308H75.9751V58.3284H70.726V48.503H79.0708V45.2728ZM86.5407 46.3453C87.5441 45.7884 88.2232 44.7182 88.2232 43.4894C88.2232 41.6868 86.7619 40.2255 84.9593 40.2255C83.1567 40.2255 81.6954 41.6868 81.6954 43.4894C81.6954 44.6906 82.3442 45.7402 83.3105 46.3069V61.6932H86.5407V46.3453ZM90.6458 45.3401V61.8278H93.8761V54.9635H98.7887V51.7333H93.8761V48.5703H103.567V45.3401H90.6458ZM111.306 48.5703H106.461V45.3401H119.382V48.5703H114.536V61.6932H111.306V48.5703ZM130.687 45.3401H121.266V55.0308H129.813V58.3284H121.333V61.5586H133.043V51.8006H124.496V48.5703H130.687V45.3401ZM83.3105 43.4894C83.3105 42.5788 84.0487 41.8406 84.9593 41.8406C85.8699 41.8406 86.608 42.5788 86.608 43.4894C86.608 44.4 85.8699 45.1382 84.9593 45.1382C84.0487 45.1382 83.3105 44.4 83.3105 43.4894Z" fill="#434847"/>
</svg>
