<svg width="135" height="75" viewBox="0 0 135 75" fill="none" xmlns="http://www.w3.org/2000/svg">
<g clip-path="url(#clip0_196_1786)">
<path d="M28.4963 29.8561L18.874 22.2123L28.4963 14.2986L37.9388 22.1223L28.4963 29.8561Z" fill="white"/>
<path d="M14.1082 32.7339L11.1855 30.3958L18.0201 24.7753L19.0093 25.4497L20.8978 23.876L21.7971 24.5954L19.9985 26.1691L20.8978 26.9335L14.1082 32.7339Z" fill="white"/>
<path d="M20.9424 26.9334L22.8309 25.2698L24.2248 26.4388L22.3363 28.1025L20.9424 26.9334Z" fill="white"/>
<path d="M18.4246 36.1062L15.502 33.7681L22.3365 28.1476L23.3257 28.822L25.2142 27.2483L26.1135 27.9677L24.3149 29.5415L25.2142 30.3058L18.4246 36.1062Z" fill="white"/>
<path d="M20.5828 71.7625L0.978516 55.3956L1.06919 22.4829L2.95693 23.651L3.13679 54.4963L22.0217 69.874L20.5828 71.7625Z" fill="white"/>
<path d="M9.79199 54.8561V29.2266L11.8603 30.8453V53.7769L22.2021 62.0503L20.8531 63.7589L9.79199 54.8561Z" fill="white"/>
<path d="M17.9746 47.392V35.7913L19.8631 37.2301V46.4028L21.9764 48.1114L20.9872 49.91L17.9746 47.392Z" fill="white"/>
<path d="M27.6875 75.0001V40.3778L29.1263 41.5468L30.1156 40.2878V70.2339L53.317 51.1691V40.2878L39.558 51.8885L38.3889 50.0001L55.2055 35.8813V52.0684L27.6875 75.0001Z" fill="white"/>
<path d="M1.06836 22.482L10.3309 29.5863L17.3453 24.0108L15.0072 22.0324L28.5863 10.7914V1.88849L53.5863 22.3022L42.2554 22.482L28.4964 33.4532L25.8885 31.4748L19.6835 36.9604L28.8561 44.1547L54.9353 21.9424L28.4065 0L1.06836 22.482Z" fill="white"/>
<path fill-rule="evenodd" clip-rule="evenodd" d="M22.5617 72.4821C23.0087 72.4821 23.371 72.1198 23.371 71.6728C23.371 71.2258 23.0087 70.8634 22.5617 70.8634C22.1147 70.8634 21.7523 71.2258 21.7523 71.6728C21.7523 72.1198 22.1147 72.4821 22.5617 72.4821ZM22.5617 73.921C23.8033 73.921 24.8099 72.9144 24.8099 71.6728C24.8099 70.4311 23.8033 69.4246 22.5617 69.4246C21.32 69.4246 20.3135 70.4311 20.3135 71.6728C20.3135 72.9144 21.32 73.921 22.5617 73.921Z" fill="white"/>
<path fill-rule="evenodd" clip-rule="evenodd" d="M22.5617 64.3886C23.0087 64.3886 23.371 64.0262 23.371 63.5793C23.371 63.1323 23.0087 62.7699 22.5617 62.7699C22.1147 62.7699 21.7523 63.1323 21.7523 63.5793C21.7523 64.0262 22.1147 64.3886 22.5617 64.3886ZM22.5617 65.8275C23.8033 65.8275 24.8099 64.8209 24.8099 63.5793C24.8099 62.3376 23.8033 61.3311 22.5617 61.3311C21.32 61.3311 20.3135 62.3376 20.3135 63.5793C20.3135 64.8209 21.32 65.8275 22.5617 65.8275Z" fill="white"/>
<path fill-rule="evenodd" clip-rule="evenodd" d="M22.5617 50.5395C23.0087 50.5395 23.371 50.1771 23.371 49.7301C23.371 49.2831 23.0087 48.9208 22.5617 48.9208C22.1147 48.9208 21.7523 49.2831 21.7523 49.7301C21.7523 50.1771 22.1147 50.5395 22.5617 50.5395ZM22.5617 51.9783C23.8033 51.9783 24.8099 50.9718 24.8099 49.7301C24.8099 48.4885 23.8033 47.4819 22.5617 47.4819C21.32 47.4819 20.3135 48.4885 20.3135 49.7301C20.3135 50.9718 21.32 51.9783 22.5617 51.9783Z" fill="white"/>
<path fill-rule="evenodd" clip-rule="evenodd" d="M37.7589 52.8327C38.2059 52.8327 38.5683 52.4703 38.5683 52.0233C38.5683 51.5764 38.2059 51.214 37.7589 51.214C37.312 51.214 36.9496 51.5764 36.9496 52.0233C36.9496 52.4703 37.312 52.8327 37.7589 52.8327ZM37.7589 54.2715C39.0006 54.2715 40.0071 53.265 40.0071 52.0233C40.0071 50.7817 39.0006 49.7751 37.7589 49.7751C36.5173 49.7751 35.5107 50.7817 35.5107 52.0233C35.5107 53.265 36.5173 54.2715 37.7589 54.2715Z" fill="white"/>
<path fill-rule="evenodd" clip-rule="evenodd" d="M101.349 14.7872C100.438 14.7872 99.7 15.5254 99.7 16.436C99.7 17.3466 100.438 18.0848 101.349 18.0848C102.259 18.0848 102.998 17.3466 102.998 16.436C102.998 15.5254 102.259 14.7872 101.349 14.7872ZM98.0848 16.436C98.0848 14.6334 99.5461 13.1721 101.349 13.1721C103.151 13.1721 104.613 14.6334 104.613 16.436C104.613 17.6921 103.903 18.7825 102.863 19.3282V35.5146H99.6327V19.2129C98.7037 18.6376 98.0848 17.6091 98.0848 16.436ZM95.2584 18.825V35.4473H92.0281V28.5158H87.1155V35.4473H83.8852V18.8923H87.1155V25.2855H92.0281V18.825H95.2584ZM68.2051 18.9596H80.1166V22.1899H71.4353V32.1498H80.0493V35.3801H68.2051V18.9596ZM106.766 18.825H118.88V28.5158H114.034V25.2855H115.649V22.0553H109.996V35.4473H106.766V18.825ZM80.0493 45.2727H68.4743V61.5585H80.1839V51.8005H74.8002V55.0307H76.9537V58.3283H71.7045V48.5029H80.0493V45.2727ZM87.5193 46.3452C88.5226 45.7883 89.2017 44.7181 89.2017 43.4893C89.2017 41.6867 87.7404 40.2254 85.9378 40.2254C84.1352 40.2254 82.6739 41.6867 82.6739 43.4893C82.6739 44.6905 83.3227 45.7401 84.289 46.3068V61.6931H87.5193V46.3452ZM91.6244 45.34V61.8277H94.8546V54.9634H99.7673V51.7332H94.8546V48.5702H104.545V45.34H91.6244ZM112.284 48.5702H107.439V45.34H120.36V48.5702H115.515V61.6931H112.284V48.5702ZM131.666 45.34H122.244V55.0307H130.791V58.3283H122.312V61.5585H134.021V51.8005H125.475V48.5702H131.666V45.34ZM84.289 43.4893C84.289 42.5787 85.0272 41.8405 85.9378 41.8405C86.8484 41.8405 87.5865 42.5787 87.5865 43.4893C87.5865 44.3999 86.8484 45.1381 85.9378 45.1381C85.0272 45.1381 84.289 44.3999 84.289 43.4893Z" fill="white"/>
</g>
<defs>
<clipPath id="clip0_196_1786">
<rect width="133.043" height="75" fill="white" transform="translate(0.978516)"/>
</clipPath>
</defs>
</svg>
