<svg width="333" height="27" viewBox="0 0 333 27" fill="none" xmlns="http://www.w3.org/2000/svg">
<path fill-rule="evenodd" clip-rule="evenodd" d="M18 13.6667C17.6022 13.6667 17.2207 13.5087 16.9393 13.2274C16.658 12.9461 16.5 12.5645 16.5 12.1667V4.16675C16.5 3.76893 16.658 3.38739 16.9393 3.10609C17.2207 2.82478 17.6022 2.66675 18 2.66675C18.3978 2.66675 18.7793 2.82478 19.0607 3.10609C19.342 3.38739 19.5 3.76893 19.5 4.16675V12.1667C19.5 12.5645 19.342 12.9461 19.0607 13.2274C18.7793 13.5087 18.3978 13.6667 18 13.6667ZM14 11.6667C13.6022 11.6667 13.2207 11.5087 12.9393 11.2274C12.658 10.9461 12.5 10.5646 12.5 10.1667V2.16675C12.5 1.76893 12.658 1.38739 12.9393 1.10609C13.2207 0.824782 13.6022 0.666748 14 0.666748C14.3978 0.666748 14.7793 0.824782 15.0607 1.10609C15.342 1.38739 15.5 1.76893 15.5 2.16675V10.1667C15.5 10.5646 15.342 10.9461 15.0607 11.2274C14.7793 11.5087 14.3978 11.6667 14 11.6667ZM10.016 12.6667H9.98399C9.59049 12.6664 9.2132 12.51 8.93495 12.2318C8.65671 11.9535 8.50026 11.5762 8.5 11.1827V4.15075C8.50026 3.75725 8.65671 3.37994 8.93495 3.10169C9.2132 2.82345 9.59049 2.66701 9.98399 2.66675H10.016C10.4095 2.66701 10.7868 2.82345 11.065 3.10169C11.3433 3.37994 11.4997 3.75725 11.5 4.15075V11.1817C11.5 11.5754 11.3437 11.9529 11.0654 12.2314C10.7871 12.5099 10.4097 12.6664 10.016 12.6667ZM6 13.6667C5.60218 13.6667 5.22065 13.5087 4.93935 13.2274C4.65804 12.9461 4.5 12.5645 4.5 12.1667V7.16675C4.5 6.76893 4.65804 6.38739 4.93935 6.10609C5.22065 5.82478 5.60218 5.66675 6 5.66675C6.39782 5.66675 6.77935 5.82478 7.06065 6.10609C7.34196 6.38739 7.5 6.76893 7.5 7.16675V12.1667C7.5 12.5645 7.34196 12.9461 7.06065 13.2274C6.77935 13.5087 6.39782 13.6667 6 13.6667Z" fill="#F3C4B7"/>
<path fill-rule="evenodd" clip-rule="evenodd" d="M16.5 7.66675V6.66675H19.5V7.66675H16.5ZM15.5 7.66675H12.5V6.66675H15.5V7.66675ZM8.5 6.66675H11.5V7.66675H8.5V6.66675ZM4.5 6.66675H7.5V7.66675H4.5V6.66675Z" fill="#E1AEA0"/>
<path fill-rule="evenodd" clip-rule="evenodd" d="M22.431 14.6667C22.4748 14.9983 22.4978 15.3323 22.5 15.6667V18.6667C22.5 20.7884 21.6572 22.8233 20.1569 24.3236C18.6566 25.8238 16.6217 26.6667 14.5 26.6667H12.5C10.3783 26.6667 8.34343 25.8238 6.84314 24.3236C5.34285 22.8233 4.5 20.7884 4.5 18.6667V15.6667C4.5022 15.3323 4.52524 14.9983 4.569 14.6667H22.431Z" fill="#F3C4B7"/>
<path d="M25.5 7.66675H0.5V20.6667H25.5V7.66675Z" fill="#76A158"/>
<path d="M25.5 7.66675H0.5V8.66675H25.5V7.66675Z" fill="#87AE6B"/>
<path opacity="0.7" d="M8 17.6667C9.933 17.6667 11.5 16.0997 11.5 14.1667C11.5 12.2337 9.933 10.6667 8 10.6667C6.067 10.6667 4.5 12.2337 4.5 14.1667C4.5 16.0997 6.067 17.6667 8 17.6667Z" fill="#9FD17D"/>
<path fill-rule="evenodd" clip-rule="evenodd" d="M25.5 20.6667H0.5V19.6667H12.737C13.0577 18.5171 13.7457 17.5039 14.6959 16.7817C15.6461 16.0595 16.8065 15.668 18 15.6667C18.171 15.6667 18.333 15.7017 18.5 15.7167V12.1667C18.5 11.7689 18.658 11.3873 18.9393 11.106C19.2207 10.8247 19.6022 10.6667 20 10.6667C20.3978 10.6667 20.7793 10.8247 21.0607 11.106C21.342 11.3873 21.5 11.7689 21.5 12.1667V19.6667H25.5V20.6667Z" fill="#669248"/>
<path d="M22.5 12.1667C22.5 11.3383 21.8284 10.6667 21 10.6667C20.1716 10.6667 19.5 11.3383 19.5 12.1667V20.1667C19.5 20.9951 20.1716 21.6667 21 21.6667C21.8284 21.6667 22.5 20.9951 22.5 20.1667V12.1667Z" fill="#F3C4B7"/>
<path fill-rule="evenodd" clip-rule="evenodd" d="M13.6 22.6665C13.3921 21.6718 13.4933 20.6373 13.8902 19.7017C14.2871 18.7662 14.9607 17.9745 15.8205 17.4328C16.6804 16.8911 17.6853 16.6254 18.7005 16.6713C19.7157 16.7172 20.6926 17.0725 21.5 17.6895V22.6665H13.6Z" fill="#F3C4B7"/>
<path d="M68.1558 26.1667C75.0598 26.1667 80.6558 20.5703 80.6558 13.6667C80.6558 6.76319 75.0598 1.16675 68.1558 1.16675C61.2518 1.16675 55.6558 6.76319 55.6558 13.6667C55.6558 20.5703 61.2518 26.1667 68.1558 26.1667Z" fill="#EC0020"/>
<path d="M88.1558 26.1667C95.0598 26.1667 100.656 20.5703 100.656 13.6667C100.656 6.76319 95.0598 1.16675 88.1558 1.16675C81.2518 1.16675 75.6558 6.76319 75.6558 13.6667C75.6558 20.5703 81.2518 26.1667 88.1558 26.1667Z" fill="#FE9A0C"/>
<path fill-rule="evenodd" clip-rule="evenodd" d="M64.2168 17.1265H63.0988L64.1218 11.4345H64.1028L62.0128 17.1265H60.6558L60.6308 11.4345H60.6118L59.7818 17.1265H58.6558L59.8808 10.1355H61.6308L61.7057 15.5815H61.7248L63.7078 10.1355H65.4378L64.2198 17.1265H64.2168ZM72.6398 13.2265C72.1458 13.1284 71.6428 13.0918 71.1398 13.1175C70.5338 13.1905 70.4018 13.3735 70.3638 13.5855C70.2248 14.3685 72.9838 13.6175 72.6488 15.4315C72.5618 15.9365 72.2938 16.3927 71.8958 16.7149C71.4968 17.0371 70.9948 17.2033 70.4828 17.1825C69.8768 17.2272 69.2687 17.1451 68.6967 16.9415L68.8607 15.9835C69.4227 16.1039 69.9977 16.1556 70.5717 16.1375C70.7587 16.1552 70.9468 16.1172 71.1118 16.0282C71.2768 15.9392 71.4118 15.8032 71.4998 15.6375C71.6518 14.8115 68.8998 15.4375 69.2328 13.5895C69.3228 13.1359 69.5807 12.7332 69.9557 12.4628C70.3317 12.1923 70.7948 12.0743 71.2538 12.1325C71.7758 12.1385 72.2948 12.2173 72.7948 12.3665L72.6428 13.2285L72.6398 13.2265ZM73.2718 12.9955L73.6818 11.1485H74.7998L74.5598 12.0735H75.2558L75.0858 12.9945H74.3858L73.8938 15.6635C73.8428 15.9565 73.8308 16.0635 74.2848 16.0635C74.3638 16.0631 74.4418 16.0557 74.5188 16.0415L74.3607 17.0355C74.1837 17.0435 73.9817 17.1675 73.8047 17.1675H73.6658C73.5118 17.2001 73.3508 17.1889 73.2028 17.1351C73.0538 17.0813 72.9238 16.9872 72.8258 16.8632C72.7278 16.7393 72.6668 16.5905 72.6488 16.4336C72.6318 16.2768 72.6578 16.1181 72.7258 15.9755L73.2688 12.9915L73.2718 12.9955ZM75.9658 15.1255C75.9198 15.2498 75.9058 15.3837 75.9258 15.5147C75.9447 15.6458 75.9968 15.77 76.0758 15.876C76.1558 15.9819 76.2598 16.0663 76.3808 16.1214C76.5008 16.1765 76.6337 16.2006 76.7657 16.1915C77.4617 16.2392 78.1528 16.0395 78.7168 15.6275L78.5398 16.5495C77.9678 16.9732 77.2598 17.1734 76.5508 17.1125C75.3577 17.1125 74.5508 16.4475 74.9278 14.4285C75.0418 13.8365 75.5658 11.9345 77.4218 11.9345C78.2618 11.9345 79.3358 12.6535 78.9218 14.8995L78.8838 15.1255H75.9658ZM77.8867 14.1665C77.9697 13.3665 77.5718 13.0035 77.2118 13.0035C76.9338 13.0574 76.6808 13.1999 76.4908 13.4095C76.2998 13.6191 76.1828 13.8847 76.1558 14.1665H77.8918H77.8867ZM79.6237 12.1615H80.6908L80.5328 12.9155H80.5558C80.6718 12.647 80.8568 12.4148 81.0938 12.2435C81.3307 12.0722 81.6098 11.9682 81.9008 11.9425C81.9768 11.9425 82.1408 11.9795 82.2108 11.9865L81.7998 13.2665C81.6258 13.2398 81.4478 13.2489 81.2768 13.2932C81.1058 13.3375 80.9458 13.4161 80.8068 13.5241C80.6678 13.6321 80.5518 13.7674 80.4658 13.9217C80.3808 14.076 80.3278 14.246 80.3098 14.4215L79.8428 17.1755H78.7248L79.6248 12.1615H79.6237ZM86.3737 11.6285C85.9597 11.3643 85.4588 11.2747 84.9788 11.3795C84.4108 11.4795 83.4788 11.8185 83.1288 13.6975C82.9518 14.6555 83.0468 15.8035 83.9678 16.0225C84.2858 16.1014 84.6168 16.1103 84.9388 16.0484C85.2608 15.9866 85.5647 15.8556 85.8307 15.6645L85.5308 16.8715C85.3978 16.9225 85.2778 17.2595 83.8958 17.1715C82.3678 17.0715 81.4897 15.9715 81.9128 13.6765C82.3358 11.3585 83.7128 10.1585 85.1958 10.1765C85.4568 10.1765 85.7158 10.2318 85.9538 10.3388C86.1918 10.4459 86.4048 10.6022 86.5788 10.7975L86.3788 11.6315L86.3737 11.6285ZM96.4518 17.1285H95.3558L95.4688 16.3735H95.4557C95.3078 16.6017 95.1048 16.789 94.8658 16.918C94.6258 17.047 94.3578 17.1135 94.0858 17.1115C92.8228 17.1115 92.5318 15.8245 92.7778 14.4725C93.0938 12.7725 94.0778 11.9335 95.0138 11.9335C95.2558 11.9188 95.4948 11.987 95.6918 12.1268C95.8898 12.2667 96.0338 12.4698 96.0998 12.7025H96.1188L96.5478 10.1525H97.6658L96.4557 17.1265L96.4518 17.1285ZM94.5578 16.0515C94.8988 16.0004 95.2108 15.8309 95.4398 15.5727C95.6678 15.3146 95.7988 14.9842 95.8078 14.6395C95.9528 13.8495 95.9028 13.0525 95.1388 13.0525C94.7898 13.1226 94.4767 13.3124 94.2527 13.5891C94.0297 13.8657 93.9098 14.2118 93.9138 14.5675C93.8058 15.1445 93.8438 16.0515 94.5578 16.0515ZM89.7078 15.9415C89.7078 15.9415 89.6008 16.4685 89.5758 16.7315L89.5188 17.1745H88.5278C88.5048 16.9177 88.5048 16.6593 88.5278 16.4025C88.3418 16.6198 88.1118 16.7954 87.8538 16.9176C87.5948 17.0398 87.3138 17.1059 87.0278 17.1115C86.8528 17.1211 86.6788 17.0867 86.5208 17.0113C86.3618 16.9359 86.2258 16.8219 86.1228 16.68C86.0208 16.538 85.9558 16.3725 85.9338 16.1987C85.9118 16.025 85.9338 15.8485 85.9978 15.6855C86.0418 15.291 86.2168 14.9225 86.4938 14.6379C86.7698 14.3534 87.1338 14.1689 87.5268 14.1135L88.5618 13.9375C88.7448 13.9085 88.9717 14.0475 89.0287 13.7695C89.0487 13.6814 89.0468 13.5897 89.0228 13.5026C88.9988 13.4155 88.9527 13.3358 88.8907 13.2706C88.8277 13.2054 88.7498 13.1567 88.6638 13.1289C88.5778 13.1012 88.4868 13.0952 88.3978 13.1115C87.8108 13.0893 87.2258 13.1993 86.6868 13.4335L86.9388 12.4755C87.4918 12.2071 88.1078 12.0954 88.7198 12.1525C89.3198 12.1755 90.3738 12.3655 90.1718 13.5525L89.7108 15.9365L89.7078 15.9415ZM88.8307 14.5885C88.5857 14.7395 88.3088 14.83 88.0218 14.8525C87.8098 14.8517 87.6038 14.926 87.4408 15.0624C87.2778 15.1987 87.1688 15.3883 87.1318 15.5975C87.1038 15.6637 87.0928 15.736 87.0998 15.8076C87.1068 15.8793 87.1318 15.9479 87.1728 16.0072C87.2138 16.0664 87.2698 16.1143 87.3338 16.1463C87.3988 16.1784 87.4697 16.1936 87.5417 16.1905C87.8187 16.1846 88.0858 16.0852 88.2988 15.9086C88.5118 15.732 88.6598 15.4884 88.7168 15.2175L88.8307 14.5885ZM90.7438 12.1605H91.8108L91.6558 13.0065H91.6748C91.7908 12.7381 91.9768 12.5059 92.2128 12.3346C92.4498 12.1633 92.7288 12.0593 93.0198 12.0335C93.0958 12.0335 93.2598 12.0705 93.3298 12.0775L92.9188 13.3565C92.8398 13.3436 92.7588 13.3386 92.6788 13.3415C92.5258 13.329 92.3718 13.347 92.2258 13.3945C92.0798 13.442 91.9448 13.5181 91.8288 13.6183C91.7118 13.7186 91.6168 13.8409 91.5478 13.9783C91.4798 14.1157 91.4388 14.2653 91.4288 14.4185L90.9618 17.1725H89.8438L90.7438 12.1585V12.1605ZM68.4438 15.9415C68.4438 15.9415 68.3368 16.4685 68.3108 16.7315L68.2548 17.1755H67.2558C67.2338 16.9183 67.2338 16.6597 67.2558 16.4025C67.0748 16.6299 66.8468 16.8164 66.5888 16.9494C66.3298 17.0825 66.0458 17.1592 65.7558 17.1745C65.5778 17.1745 65.4028 17.1313 65.2448 17.0487C65.0868 16.966 64.9518 16.8463 64.8508 16.6999C64.7498 16.5534 64.6858 16.3846 64.6638 16.208C64.6418 16.0313 64.6638 15.852 64.7268 15.6855C64.7708 15.2912 64.9458 14.9228 65.2218 14.6382C65.4988 14.3537 65.8618 14.1691 66.2548 14.1135L67.2908 13.9375C67.4008 13.9331 67.5048 13.8928 67.5898 13.8229C67.6738 13.753 67.7328 13.6573 67.7578 13.5505C67.8528 13.0025 67.4108 13.0875 67.1268 13.0795C66.5388 13.0577 65.9538 13.1677 65.4148 13.4015L65.6678 12.4435C66.2208 12.1753 66.8368 12.064 67.4488 12.1215C68.0488 12.1445 69.1028 12.3345 68.9008 13.5215L68.4398 15.9375L68.4438 15.9415ZM67.5658 14.5885C67.3218 14.7397 67.0448 14.8303 66.7578 14.8525C66.5458 14.8517 66.3398 14.926 66.1768 15.0624C66.0138 15.1987 65.9048 15.3883 65.8678 15.5975C65.8398 15.6637 65.8288 15.736 65.8358 15.8076C65.8428 15.8793 65.8678 15.9479 65.9088 16.0072C65.9498 16.0664 66.0058 16.1143 66.0698 16.1463C66.1348 16.1784 66.2058 16.1936 66.2778 16.1905C66.5548 16.1846 66.8218 16.0852 67.0348 15.9086C67.2478 15.732 67.3958 15.4884 67.4528 15.2175L67.5658 14.5885Z" fill="white"/>
<path fill-rule="evenodd" clip-rule="evenodd" d="M64.2168 17.1265H63.0988L64.1218 11.4345H64.1028L62.0128 17.1265H60.6558L60.6308 11.4345H60.6118L59.7818 17.1265H58.6558L59.8808 10.1355H61.6308L61.7057 15.5815H61.7248L63.7078 10.1355H65.4378L64.2198 17.1265H64.2168ZM72.6398 13.2265C72.1458 13.1284 71.6428 13.0918 71.1398 13.1175C70.5338 13.1905 70.4018 13.3735 70.3638 13.5855C70.2248 14.3685 72.9838 13.6175 72.6488 15.4315C72.5618 15.9365 72.2938 16.3927 71.8958 16.7149C71.4968 17.0371 70.9948 17.2033 70.4828 17.1825C69.8768 17.2272 69.2687 17.1451 68.6967 16.9415L68.8607 15.9835C69.4227 16.1039 69.9977 16.1556 70.5717 16.1375C70.7587 16.1552 70.9468 16.1172 71.1118 16.0282C71.2768 15.9392 71.4118 15.8032 71.4998 15.6375C71.6518 14.8115 68.8998 15.4375 69.2328 13.5895C69.3228 13.1359 69.5807 12.7332 69.9557 12.4628C70.3317 12.1923 70.7948 12.0743 71.2538 12.1325C71.7758 12.1385 72.2948 12.2173 72.7948 12.3665L72.6428 13.2285L72.6398 13.2265ZM73.2718 12.9955L73.6818 11.1485H74.7998L74.5598 12.0735H75.2558L75.0858 12.9945H74.3858L73.8938 15.6635C73.8428 15.9565 73.8308 16.0635 74.2848 16.0635C74.3638 16.0631 74.4418 16.0557 74.5188 16.0415L74.3607 17.0355C74.1837 17.0435 73.9817 17.1675 73.8047 17.1675H73.6658C73.5118 17.2001 73.3508 17.1889 73.2028 17.1351C73.0538 17.0813 72.9238 16.9872 72.8258 16.8632C72.7278 16.7393 72.6668 16.5905 72.6488 16.4336C72.6318 16.2768 72.6578 16.1181 72.7258 15.9755L73.2688 12.9915L73.2718 12.9955ZM75.9658 15.1255C75.9198 15.2498 75.9058 15.3837 75.9258 15.5147C75.9447 15.6458 75.9968 15.77 76.0758 15.876C76.1558 15.9819 76.2598 16.0663 76.3808 16.1214C76.5008 16.1765 76.6337 16.2006 76.7657 16.1915C77.4617 16.2392 78.1528 16.0395 78.7168 15.6275L78.5398 16.5495C77.9678 16.9732 77.2598 17.1734 76.5508 17.1125C75.3577 17.1125 74.5508 16.4475 74.9278 14.4285C75.0418 13.8365 75.5658 11.9345 77.4218 11.9345C78.2618 11.9345 79.3358 12.6535 78.9218 14.8995L78.8838 15.1255H75.9658ZM77.8867 14.1665C77.9697 13.3665 77.5718 13.0035 77.2118 13.0035C76.9338 13.0574 76.6808 13.1999 76.4908 13.4095C76.2998 13.6191 76.1828 13.8847 76.1558 14.1665H77.8918H77.8867ZM79.6237 12.1615H80.6908L80.5328 12.9155H80.5558C80.6718 12.647 80.8568 12.4148 81.0938 12.2435C81.3307 12.0722 81.6098 11.9682 81.9008 11.9425C81.9768 11.9425 82.1408 11.9795 82.2108 11.9865L81.7998 13.2665C81.6258 13.2398 81.4478 13.2489 81.2768 13.2932C81.1058 13.3375 80.9458 13.4161 80.8068 13.5241C80.6678 13.6321 80.5518 13.7674 80.4658 13.9217C80.3808 14.076 80.3278 14.246 80.3098 14.4215L79.8428 17.1755H78.7248L79.6248 12.1615H79.6237ZM86.3737 11.6285C85.9597 11.3643 85.4588 11.2747 84.9788 11.3795C84.4108 11.4795 83.4788 11.8185 83.1288 13.6975C82.9518 14.6555 83.0468 15.8035 83.9678 16.0225C84.2858 16.1014 84.6168 16.1103 84.9388 16.0484C85.2608 15.9866 85.5647 15.8556 85.8307 15.6645L85.5308 16.8715C85.3978 16.9225 85.2778 17.2595 83.8958 17.1715C82.3678 17.0715 81.4897 15.9715 81.9128 13.6765C82.3358 11.3585 83.7128 10.1585 85.1958 10.1765C85.4568 10.1765 85.7158 10.2318 85.9538 10.3388C86.1918 10.4459 86.4048 10.6022 86.5788 10.7975L86.3788 11.6315L86.3737 11.6285ZM96.4518 17.1285H95.3558L95.4688 16.3735H95.4557C95.3078 16.6017 95.1048 16.789 94.8658 16.918C94.6258 17.047 94.3578 17.1135 94.0858 17.1115C92.8228 17.1115 92.5318 15.8245 92.7778 14.4725C93.0938 12.7725 94.0778 11.9335 95.0138 11.9335C95.2558 11.9188 95.4948 11.987 95.6918 12.1268C95.8898 12.2667 96.0338 12.4698 96.0998 12.7025H96.1188L96.5478 10.1525H97.6658L96.4557 17.1265L96.4518 17.1285ZM94.5578 16.0515C94.8988 16.0004 95.2108 15.8309 95.4398 15.5727C95.6678 15.3146 95.7988 14.9842 95.8078 14.6395C95.9528 13.8495 95.9028 13.0525 95.1388 13.0525C94.7898 13.1226 94.4767 13.3124 94.2527 13.5891C94.0297 13.8657 93.9098 14.2118 93.9138 14.5675C93.8058 15.1445 93.8438 16.0515 94.5578 16.0515ZM89.7078 15.9415C89.7078 15.9415 89.6008 16.4685 89.5758 16.7315L89.5188 17.1745H88.5278C88.5048 16.9177 88.5048 16.6593 88.5278 16.4025C88.3418 16.6198 88.1118 16.7954 87.8538 16.9176C87.5948 17.0398 87.3138 17.1059 87.0278 17.1115C86.8528 17.1211 86.6788 17.0867 86.5208 17.0113C86.3618 16.9359 86.2258 16.8219 86.1228 16.68C86.0208 16.538 85.9558 16.3725 85.9338 16.1987C85.9118 16.025 85.9338 15.8485 85.9978 15.6855C86.0418 15.291 86.2168 14.9225 86.4938 14.6379C86.7698 14.3534 87.1338 14.1689 87.5268 14.1135L88.5618 13.9375C88.7448 13.9085 88.9717 14.0475 89.0287 13.7695C89.0487 13.6814 89.0468 13.5897 89.0228 13.5026C88.9988 13.4155 88.9527 13.3358 88.8907 13.2706C88.8277 13.2054 88.7498 13.1567 88.6638 13.1289C88.5778 13.1012 88.4868 13.0952 88.3978 13.1115C87.8108 13.0893 87.2258 13.1993 86.6868 13.4335L86.9388 12.4755C87.4918 12.2071 88.1078 12.0954 88.7198 12.1525C89.3198 12.1755 90.3738 12.3655 90.1718 13.5525L89.7108 15.9365L89.7078 15.9415ZM88.8307 14.5885C88.5857 14.7395 88.3088 14.83 88.0218 14.8525C87.8098 14.8517 87.6038 14.926 87.4408 15.0624C87.2778 15.1987 87.1688 15.3883 87.1318 15.5975C87.1038 15.6637 87.0928 15.736 87.0998 15.8076C87.1068 15.8793 87.1318 15.9479 87.1728 16.0072C87.2138 16.0664 87.2698 16.1143 87.3338 16.1463C87.3988 16.1784 87.4697 16.1936 87.5417 16.1905C87.8187 16.1846 88.0858 16.0852 88.2988 15.9086C88.5118 15.732 88.6598 15.4884 88.7168 15.2175L88.8307 14.5885ZM90.7438 12.1605H91.8108L91.6558 13.0065H91.6748C91.7908 12.7381 91.9768 12.5059 92.2128 12.3346C92.4498 12.1633 92.7288 12.0593 93.0198 12.0335C93.0958 12.0335 93.2598 12.0705 93.3298 12.0775L92.9188 13.3565C92.8398 13.3436 92.7588 13.3386 92.6788 13.3415C92.5258 13.329 92.3718 13.347 92.2258 13.3945C92.0798 13.442 91.9448 13.5181 91.8288 13.6183C91.7118 13.7186 91.6168 13.8409 91.5478 13.9783C91.4798 14.1157 91.4388 14.2653 91.4288 14.4185L90.9618 17.1725H89.8438L90.7438 12.1585V12.1605ZM68.4438 15.9415C68.4438 15.9415 68.3368 16.4685 68.3108 16.7315L68.2548 17.1755H67.2558C67.2338 16.9183 67.2338 16.6597 67.2558 16.4025C67.0748 16.6299 66.8468 16.8164 66.5888 16.9494C66.3298 17.0825 66.0458 17.1592 65.7558 17.1745C65.5778 17.1745 65.4028 17.1313 65.2448 17.0487C65.0868 16.966 64.9518 16.8463 64.8508 16.6999C64.7498 16.5534 64.6858 16.3846 64.6638 16.208C64.6418 16.0313 64.6638 15.852 64.7268 15.6855C64.7708 15.2912 64.9458 14.9228 65.2218 14.6382C65.4988 14.3537 65.8618 14.1691 66.2548 14.1135L67.2908 13.9375C67.4008 13.9331 67.5048 13.8928 67.5898 13.8229C67.6738 13.753 67.7328 13.6573 67.7578 13.5505C67.8528 13.0025 67.4108 13.0875 67.1268 13.0795C66.5388 13.0577 65.9538 13.1677 65.4148 13.4015L65.6678 12.4435C66.2208 12.1753 66.8368 12.064 67.4488 12.1215C68.0488 12.1445 69.1028 12.3345 68.9008 13.5215L68.4398 15.9375L68.4438 15.9415ZM67.5658 14.5885C67.3218 14.7397 67.0448 14.8303 66.7578 14.8525C66.5458 14.8517 66.3398 14.926 66.1768 15.0624C66.0138 15.1987 65.9048 15.3883 65.8678 15.5975C65.8398 15.6637 65.8288 15.736 65.8358 15.8076C65.8428 15.8793 65.8678 15.9479 65.9088 16.0072C65.9498 16.0664 66.0058 16.1143 66.0698 16.1463C66.1348 16.1784 66.2058 16.1936 66.2778 16.1905C66.5548 16.1846 66.8218 16.0852 67.0348 15.9086C67.2478 15.732 67.3958 15.4884 67.4528 15.2175L67.5658 14.5885Z" fill="white"/>
<path fill-rule="evenodd" clip-rule="evenodd" d="M180.443 22.2082C180.443 22.2082 180.052 19.8222 179.921 19.2242H174.268C174.112 19.6922 173.331 22.2082 173.331 22.2082H168.719L175.259 6.61318C175.421 6.14966 175.737 5.75538 176.154 5.4954C176.57 5.23542 177.063 5.12529 177.551 5.18317H180.964L184.533 22.2082H180.443ZM178.176 11.2382L177.863 9.78217C177.655 10.4322 177.263 11.4462 177.29 11.4202C177.29 11.4202 175.883 15.1882 175.545 16.1752H179.192C179.012 15.3152 178.176 11.2382 178.176 11.2382ZM168.693 9.10817C167.663 8.64335 166.54 8.42097 165.411 8.45817C163.665 8.45817 162.883 9.18617 162.857 9.91317C162.857 10.7192 163.796 11.2382 165.357 12.0182C167.885 13.2182 169.057 14.6942 169.031 16.6422C169.005 20.1502 166.009 22.4362 161.371 22.4362C159.695 22.4417 158.033 22.1338 156.471 21.5282L157.071 17.7082L157.671 17.9942C158.95 18.6229 160.362 18.9347 161.787 18.9032C163.064 18.9032 164.418 18.3832 164.445 17.2402C164.445 16.4872 163.872 15.9402 162.152 15.1102C160.485 14.3042 158.27 12.9532 158.296 10.5102C158.322 7.21017 161.37 4.89717 165.721 4.89717C167.072 4.8891 168.414 5.12628 169.681 5.59718L169.081 9.28717L168.693 9.10817ZM149.311 22.2082L152.072 5.18317H156.472L153.712 22.2082H149.312H149.311ZM138.711 22.2082L134.785 7.43917C134.651 7.36117 134.51 7.29017 134.373 7.21517H137.001L137.972 7.90217L139.753 10.6212L140.509 12.7092L140.848 14.4342L141.317 16.7732L145.641 5.18317H150.305L143.375 22.2082H138.712H138.711Z" fill="#1470B0"/>
<path fill-rule="evenodd" clip-rule="evenodd" d="M136.712 9.42346C136.184 9.00886 135.617 8.64806 135.018 8.34646L134.767 7.40246C133.521 6.68827 132.193 6.12881 130.812 5.73647V5.20947H137.576C137.98 5.21045 138.373 5.34986 138.687 5.60453C139.002 5.85921 139.22 6.21382 139.305 6.60946L140.769 14.0635C139.686 12.3002 138.315 10.7317 136.712 9.42346Z" fill="#FFB927"/>
<path fill-rule="evenodd" clip-rule="evenodd" d="M231.234 22.1669V12.0669H230.788L227.589 22.1669H223.788H223.777L220.589 12.0669H220.145V22.1669H214.688V5.16685H220.154C220.835 5.16383 221.498 5.37995 222.047 5.7833C222.596 6.18665 223.001 6.75584 223.202 7.40684L225.448 15.2639H225.921L228.171 7.40684C228.373 6.75388 228.78 6.18338 229.332 5.77991C229.884 5.37643 230.551 5.16146 231.234 5.16685H236.699V22.1669H231.234Z" fill="#52B461"/>
<path fill-rule="evenodd" clip-rule="evenodd" d="M252.138 22.1668V12.1558H251.707L247.98 20.5428C247.761 21.0273 247.407 21.4384 246.96 21.7264C246.512 22.0145 245.992 22.1674 245.46 22.1668H240.684V5.16675H246.184V15.1778H246.635L250.409 6.77775C250.419 6.75575 250.428 6.73475 250.438 6.71375V6.70775C250.666 6.24455 251.02 5.85462 251.459 5.58223C251.897 5.30985 252.404 5.1659 252.92 5.16675H257.696V22.1668H252.138Z" fill="#52B461"/>
<path fill-rule="evenodd" clip-rule="evenodd" d="M273.822 17.1747H267.27V22.1667H261.708V13.1667H280.189C279.638 14.3855 278.74 15.4152 277.608 16.1279C276.476 16.8405 275.159 17.2045 273.822 17.1747Z" fill="#52B461"/>
<path fill-rule="evenodd" clip-rule="evenodd" d="M280.538 11.1668H269.967C265.376 11.1668 261.559 8.39475 260.755 5.16675H274.316C277.827 5.16675 280.672 7.60075 280.672 10.2018C280.672 10.5281 280.627 10.8528 280.538 11.1668Z" fill="url(#paint0_linear_20_216)"/>
<path d="M317.12 13.6646L313.856 15.5461L310.828 20.7896L323.18 13.6646H317.12Z" fill="#874691"/>
<path d="M326.444 8.29175L323.18 10.1733L320.152 15.4168L332.5 8.29175H326.444Z" fill="#DA1844"/>
<path d="M323.18 6.41023L320.152 1.16675V11.9166V15.4169V26.1667L323.18 20.9233V6.41023Z" fill="#F9B229"/>
<path d="M320.152 1.16675L323.18 6.41023L326.444 8.2918H332.5L320.152 1.16675Z" fill="#F07F1A"/>
<path d="M320.152 11.9165V26.1666L323.18 20.9231V17.1554L320.152 11.9165Z" fill="#72B22C"/>
<path d="M326.444 19.0417L323.18 20.9233L320.152 26.1668L332.5 19.0417H326.444Z" fill="#00743E"/>
<path d="M310.828 6.53931V20.7894L313.856 15.546V11.7828L310.828 6.53931Z" fill="#5F5A94"/>
<path d="M320.152 11.9165V11.9212L310.828 6.53931L313.856 11.7828L326.444 19.0416H332.5L320.152 11.9165Z" fill="#0D90CD"/>
<defs>
<linearGradient id="paint0_linear_20_216" x1="17886.7" y1="581.167" x2="17490.2" y2="581.167" gradientUnits="userSpaceOnUse">
<stop stop-color="#198ECA"/>
<stop offset="1" stop-color="#1DB5E4"/>
</linearGradient>
</defs>
</svg>
